<mxfile host="app.diagrams.net" modified="2024-04-05T15:16:09.916Z" agent="Mozilla/5.0 (Windows NT 10.0; Win64; x64; rv:124.0) Gecko/20100101 Firefox/124.0" etag="FpWM7d57sfb2HZzgudgh" version="24.2.2" type="github">
  <diagram name="PÃ¡gina-1" id="LJF5qG34sOuARs3VYbc_">
    <mxGraphModel dx="989" dy="514" grid="1" gridSize="10" guides="1" tooltips="1" connect="1" arrows="1" fold="1" page="1" pageScale="1" pageWidth="827" pageHeight="1169" math="0" shadow="0">
      <root>
        <mxCell id="0" />
        <mxCell id="1" parent="0" />
      </root>
    </mxGraphModel>
  </diagram>
</mxfile>
